<svg width="13" height="13" viewBox="0 0 13 13" fill="none" xmlns="http://www.w3.org/2000/svg">
<circle cx="6.5" cy="6.5" r="6" stroke="white"/>
<path d="M7.4233 4.54545V5.53977H4.19886V4.54545H7.4233ZM5.00497 10V4.03054C5.00497 3.66359 5.08073 3.35819 5.23224 3.11435C5.38613 2.8705 5.59209 2.68821 5.85014 2.56747C6.10819 2.44673 6.39465 2.38636 6.70952 2.38636C6.93206 2.38636 7.12973 2.40412 7.30256 2.43963C7.47538 2.47514 7.60322 2.5071 7.68608 2.53551L7.4304 3.52983C7.37595 3.51326 7.30729 3.49669 7.22443 3.48011C7.14157 3.46117 7.04924 3.4517 6.94744 3.4517C6.70833 3.4517 6.53906 3.50971 6.43963 3.62571C6.34257 3.73935 6.29403 3.9027 6.29403 4.11577V10H5.00497Z" fill="white"/>
</svg>
