<svg width="312" height="106" viewBox="0 0 312 106" fill="none" xmlns="http://www.w3.org/2000/svg">
<path d="M190.589 17.9461C190.589 14.5431 188.772 12.9311 183.711 11.8207C180.896 11.2117 180.219 10.567 180.219 9.67146C180.219 8.56102 181.217 8.05952 183.069 8.05952C185.315 8.05952 187.524 8.74012 189.627 9.70729V5.22967C188.166 4.47743 185.885 3.9043 183.213 3.9043C178.188 3.9043 175.586 6.08937 175.586 9.70729C175.586 12.5729 176.904 14.8655 182.107 15.8685C185.207 16.5132 185.849 17.0147 185.849 18.0535C185.849 19.0565 185.207 19.7013 182.999 19.7013C180.468 19.7013 177.439 18.8416 175.479 17.6595V22.352C177.047 23.1401 179.114 23.9998 182.963 23.9998C188.451 23.9998 190.589 21.564 190.589 17.9461Z" fill="#D6D6D6"/>
<path d="M245.436 4.19092V23.7133H249.569V8.81182L251.315 12.788L257.16 23.7133H262.363V4.19092H258.229V16.7999L256.661 13.1462L251.957 4.19092H245.436Z" fill="#D6D6D6"/>
<path d="M219.135 4.19092H214.609V23.6775H219.135V4.19092Z" fill="#D6D6D6"/>
<path d="M209.405 17.9461C209.405 14.5431 207.587 12.9311 202.527 11.8207C199.712 11.2117 199.034 10.567 199.034 9.67146C199.034 8.56102 200.032 8.05952 201.886 8.05952C204.13 8.05952 206.34 8.74012 208.443 9.70729V5.22967C206.982 4.47743 204.701 3.9043 202.028 3.9043C197.003 3.9043 194.401 6.08937 194.401 9.70729C194.401 12.5729 195.721 14.8655 200.923 15.8685C204.024 16.5132 204.665 17.0147 204.665 18.0535C204.665 19.0565 204.024 19.7013 201.814 19.7013C199.284 19.7013 196.255 18.8416 194.295 17.6595V22.352C195.863 23.1401 197.93 23.9998 201.778 23.9998C207.267 23.9998 209.405 21.564 209.405 17.9461Z" fill="#D6D6D6"/>
<path d="M140.52 4.19092V23.7133H149.821L151.282 19.4865H145.081V4.19092H140.52Z" fill="#D6D6D6"/>
<path d="M122.201 4.19092V8.41779H127.19V23.7133H131.752V8.41779H137.133V4.19092H122.201Z" fill="#D6D6D6"/>
<path d="M115.607 4.19092H109.656L102.885 23.6775H108.052L109.014 20.382C110.155 20.7044 111.366 20.9193 112.649 20.9193C113.897 20.9193 115.108 20.7402 116.284 20.382L117.247 23.6775H122.414L115.607 4.19092ZM112.614 16.9074C111.758 16.9074 110.903 16.7641 110.119 16.5491L112.614 8.02376L115.108 16.5491C114.324 16.7641 113.469 16.9074 112.614 16.9074Z" fill="#D6D6D6"/>
<path d="M165.82 4.19092H159.869L153.098 23.6775H158.265L159.227 20.382C160.368 20.7044 161.579 20.9193 162.862 20.9193C164.109 20.9193 165.321 20.7402 166.497 20.382L167.459 23.6775H172.627L165.82 4.19092ZM162.862 16.9074C162.007 16.9074 161.152 16.7641 160.368 16.5491L162.862 8.02376L165.357 16.5491C164.537 16.7641 163.718 16.9074 162.862 16.9074Z" fill="#D6D6D6"/>
<path d="M235.42 4.19092H229.468L222.697 23.6775H227.865L228.827 20.382C229.968 20.7044 231.179 20.9193 232.462 20.9193C233.71 20.9193 234.921 20.7402 236.097 20.382L237.059 23.6775H242.227L235.42 4.19092ZM232.426 16.9074C231.571 16.9074 230.716 16.7641 229.932 16.5491L232.426 8.02376L234.921 16.5491C234.137 16.7641 233.318 16.9074 232.426 16.9074Z" fill="#D6D6D6"/>
<path d="M209.405 17.9462C209.405 14.5432 207.623 12.9312 202.527 11.8208C199.712 11.2118 199.034 10.5671 199.034 9.67157C199.034 8.56113 200.032 8.05963 201.886 8.05963C204.13 8.05963 206.34 8.74023 208.443 9.70739V5.22978C206.447 4.29844 204.238 3.86859 202.028 3.90441C197.003 3.90441 194.401 6.08948 194.401 9.70739C194.401 12.573 195.721 14.8656 200.923 15.8685C204.024 16.5133 204.665 17.0148 204.665 18.0536C204.665 19.0924 204.024 19.7014 201.814 19.7014C199.177 19.6656 196.575 18.9491 194.295 17.6596V22.3521C195.863 23.1402 197.93 23.9999 201.778 23.9999C207.231 23.9999 209.369 21.5641 209.405 17.9462Z" fill="#D6D6D6"/>
<g clip-path="url(#clip0_304_4)">
<path fill-rule="evenodd" clip-rule="evenodd" d="M55 42H7.4C3.3 42 0 45.3 0 49.4V96.9C0 98.9 0.8 100.8 2.2 102.2C3.6 103.6 5.5 104.4 7.5 104.4H55C57 104.4 58.9 103.6 60.3 102.2C61.7 100.8 62.5 98.9 62.5 96.9V49.4C62.4 45.3 59.1 42 55 42ZM26.9 86.9C26.9 87.6 26.6 88.2 26.2 88.7C25.7 89.2 25.1 89.4 24.4 89.4H14C12.6 89.4 11.5 88.3 11.5 86.9V56C11.5 54.6 12.6 53.5 14 53.5H24.4C25.8 53.5 26.9 54.6 26.9 56V86.9ZM50.9 72.7C50.9 73.4 50.6 74 50.2 74.5C49.8 75 49.1 75.2 48.4 75.2H38C36.6 75.2 35.5 74.1 35.5 72.7V56C35.5 54.6 36.6 53.5 38 53.5H48.4C49.8 53.5 50.9 54.6 50.9 56V72.7Z" fill="url(#paint0_linear_304_4)"/>
<path d="M129.3 46.6001V58.7001H115.1V104.4H101.3V58.6001H87V46.6001H129.3Z" fill="white"/>
<path d="M146.9 104.4H134.1V59.4H146.8V68C149.2 61.9 153.1 58.3 160 58.8V72.1C151 71.4 146.8 73.6 146.8 80.8V104.4H146.9Z" fill="white"/>
<path d="M229.7 104.7C221.3 104.7 216.1 100.7 216.1 91.2V42H228.9V89.5C228.9 92.2 230.7 93.2 232.9 93.2C233.5 93.2 234.2 93.2 234.8 93.1V104.2C233.1 104.6 231.4 104.8 229.7 104.7Z" fill="white"/>
<path d="M256.401 104.7C248.001 104.7 242.801 100.7 242.801 91.2V42H255.601V89.5C255.601 92.2 257.401 93.2 259.701 93.2C260.301 93.2 261.001 93.2 261.601 93.1V104.2C259.901 104.6 258.201 104.8 256.401 104.7Z" fill="white"/>
<path d="M267.699 81.9C267.699 68 275.699 58.5 289.499 58.5C303.299 58.5 311.099 68 311.099 81.9C311.099 95.8 303.199 105.5 289.499 105.5C275.799 105.5 267.699 95.7 267.699 81.9ZM280.199 81.9C280.199 88.7 282.999 94 289.499 94C295.999 94 298.599 88.6 298.599 81.9C298.599 75.2 295.799 69.9 289.499 69.9C283.199 69.9 280.199 75.1 280.199 81.9Z" fill="white"/>
<path d="M177.301 85.8998C180.901 86.2998 184.501 86.4998 188.001 86.4998C197.801 86.4998 206.001 83.8998 206.001 74.3998C206.001 65.1998 197.501 58.2998 187.301 58.2998C173.601 58.2998 164.801 68.1998 164.801 82.1998C164.801 96.5998 172.401 105.2 189.501 105.2C194.601 105.2 199.601 104.3 204.401 102.5V91.7998C200.001 93.1998 195.101 94.5998 190.001 94.5998C183.201 94.6998 178.401 92.3998 177.301 85.8998ZM187.101 68.1998C190.701 68.1998 193.601 70.6998 193.601 73.9998C193.601 78.2998 189.001 79.6998 183.801 79.6998C181.601 79.6998 179.301 79.4998 177.101 79.1998C177.301 77.0998 177.901 75.0998 178.901 73.1998C180.501 70.1998 183.701 68.2998 187.101 68.1998Z" fill="white"/>
</g>
<defs>
<linearGradient id="paint0_linear_304_4" x1="31.2097" y1="104.369" x2="31.2097" y2="41.9902" gradientUnits="userSpaceOnUse">
<stop stop-color="#DADADA"/>
<stop offset="1" stop-color="#D2D2D2"/>
</linearGradient>
<clipPath id="clip0_304_4">
<rect width="311.1" height="63.4" fill="white" transform="translate(0 42)"/>
</clipPath>
</defs>
</svg>
