<svg width="13" height="13" viewBox="0 0 13 13" fill="none" xmlns="http://www.w3.org/2000/svg">
<circle cx="6.5" cy="6.5" r="6" stroke="white"/>
<path d="M3.44034 9V4.63636H4.82955V9H3.44034ZM4.13636 4.12784C3.94129 4.12784 3.77367 4.06345 3.63352 3.93466C3.49337 3.80398 3.4233 3.64678 3.4233 3.46307C3.4233 3.28125 3.49337 3.12595 3.63352 2.99716C3.77367 2.86648 3.94129 2.80114 4.13636 2.80114C4.33333 2.80114 4.50095 2.86648 4.6392 2.99716C4.77936 3.12595 4.84943 3.28125 4.84943 3.46307C4.84943 3.64678 4.77936 3.80398 4.6392 3.93466C4.50095 4.06345 4.33333 4.12784 4.13636 4.12784ZM7.10298 6.51136V9H5.71378V4.63636H7.0348V5.4375H7.0831C7.17969 5.17045 7.34446 4.96117 7.57741 4.80966C7.81037 4.65625 8.08783 4.57955 8.4098 4.57955C8.71662 4.57955 8.98272 4.64867 9.2081 4.78693C9.43537 4.9233 9.61151 5.11458 9.73651 5.3608C9.8634 5.60511 9.9259 5.8911 9.92401 6.21875V9H8.5348V6.49148C8.5367 6.24905 8.47514 6.05966 8.35014 5.9233C8.22704 5.78693 8.05563 5.71875 7.83594 5.71875C7.6901 5.71875 7.56132 5.75095 7.44957 5.81534C7.33973 5.87784 7.2545 5.9678 7.19389 6.08523C7.13518 6.20265 7.10488 6.3447 7.10298 6.51136Z" fill="white"/>
</svg>
