<svg width="13" height="13" viewBox="0 0 13 13" fill="none" xmlns="http://www.w3.org/2000/svg">
<circle cx="6.5" cy="6.5" r="6" stroke="white"/>
<path d="M5.20192 10C4.42126 10.0008 3.65686 9.76473 3 9.32001C3.11378 9.33393 3.22824 9.34082 3.34278 9.34065C3.98956 9.34174 4.61789 9.11357 5.12681 8.69281C4.82703 8.68678 4.53652 8.58216 4.29591 8.39356C4.0553 8.20496 3.8766 7.94182 3.78481 7.64092C3.87376 7.65906 3.96415 7.66822 4.05476 7.66827C4.18269 7.66829 4.31005 7.65038 4.4335 7.61501C4.10834 7.54578 3.81591 7.3601 3.60583 7.08948C3.39574 6.81886 3.28093 6.47995 3.28087 6.13026C3.28087 6.12355 3.28087 6.11731 3.28087 6.11107C3.48026 6.22807 3.70331 6.29306 3.93139 6.30062C3.62725 6.08645 3.41201 5.75809 3.32955 5.38244C3.24708 5.0068 3.30358 4.61215 3.48755 4.2789C3.84792 4.74673 4.29757 5.12947 4.80733 5.40229C5.31709 5.6751 5.87556 5.8319 6.44651 5.86249C6.37382 5.53735 6.40511 5.19601 6.53551 4.89155C6.66591 4.5871 6.88811 4.33662 7.16754 4.17907C7.44697 4.02153 7.76796 3.96576 8.08057 4.02043C8.39318 4.07511 8.67989 4.23717 8.89608 4.4814C9.21712 4.41413 9.52499 4.28983 9.80653 4.11382C9.69927 4.4645 9.47491 4.76222 9.17513 4.95169C9.45988 4.91541 9.7379 4.83454 10 4.71175C9.80706 5.01592 9.56428 5.28143 9.28302 5.49587C9.28621 5.56065 9.28757 5.62591 9.28757 5.69166C9.28757 7.69227 7.84223 10 5.2001 10" fill="white"/>
</svg>
